<svg width="22" height="28" viewBox="0 0 22 28" fill="none" xmlns="http://www.w3.org/2000/svg">
<path d="M19.0002 6.00002H16.3335C16.3335 3.05335 13.9468 0.666687 11.0002 0.666687C8.0535 0.666687 5.66683 3.05335 5.66683 6.00002H3.00016C1.5335 6.00002 0.333496 7.20002 0.333496 8.66669V24.6667C0.333496 26.1334 1.5335 27.3334 3.00016 27.3334H19.0002C20.4668 27.3334 21.6668 26.1334 21.6668 24.6667V8.66669C21.6668 7.20002 20.4668 6.00002 19.0002 6.00002ZM11.0002 3.33335C12.4668 3.33335 13.6668 4.53335 13.6668 6.00002H8.3335C8.3335 4.53335 9.5335 3.33335 11.0002 3.33335ZM19.0002 24.6667H3.00016V8.66669H5.66683V11.3334C5.66683 12.0667 6.26683 12.6667 7.00016 12.6667C7.7335 12.6667 8.3335 12.0667 8.3335 11.3334V8.66669H13.6668V11.3334C13.6668 12.0667 14.2668 12.6667 15.0002 12.6667C15.7335 12.6667 16.3335 12.0667 16.3335 11.3334V8.66669H19.0002V24.6667Z" fill="#002F52"/>
</svg>
